<?xml version="1.0" encoding="utf-8"?>
<!-- Generator: Adobe Illustrator 22.0.1, SVG Export Plug-In . SVG Version: 6.00 Build 0)  -->
<svg version="1.1" id="Layer_1" xmlns="http://www.w3.org/2000/svg" xmlns:xlink="http://www.w3.org/1999/xlink" x="0px" y="0px"
	 viewBox="0 0 202 60" style="enable-background:new 0 0 202 60;" xml:space="preserve">
<style type="text/css">
	.st0{fill:#231F20;}
	.st1{fill:#72BE44;}
	.st2{fill:#6D6E70;}
</style>
<title>baires</title>
<g>
	<circle class="st0" cx="29.9" cy="30" r="28.9"/>
	<g>
		<g>
			<path class="st1" d="M7.8,21.4c1.1-0.2,3.2-0.4,5.3-0.4c2.5,0,4.1,0.2,5.4,1c1.3,0.7,2.2,1.9,2.2,3.6c0,1.6-0.9,3.1-3,3.9v0.1
				c2.1,0.5,3.6,2.1,3.6,4.5c0,1.7-0.8,3-1.9,3.9c-1.3,1.1-3.5,1.6-7.2,1.6c-2,0-3.5-0.1-4.5-0.3V21.4z M11.9,28.4h1.4
				c2.2,0,3.3-0.9,3.3-2.2c0-1.4-1.1-2.1-2.9-2.1c-0.9,0-1.4,0.1-1.8,0.1V28.4z M11.9,36.4c0.4,0.1,0.9,0.1,1.6,0.1
				c1.9,0,3.5-0.7,3.5-2.6c0-1.8-1.6-2.6-3.7-2.6h-1.4V36.4z"/>
			<path class="st1" d="M28.3,34.7L27,39.4h-4.3l5.6-18.2h5.4l5.7,18.2h-4.4l-1.4-4.7H28.3z M32.9,31.6l-1.1-3.9
				c-0.3-1.1-0.6-2.5-0.9-3.5h-0.1c-0.2,1.1-0.5,2.5-0.8,3.5l-1.1,3.9H32.9z"/>
			<path class="st1" d="M41.8,21.4c1.3-0.2,3.1-0.4,5.6-0.4c2.5,0,4.4,0.5,5.6,1.5c1.2,0.9,1.9,2.4,1.9,4.2c0,1.8-0.6,3.3-1.6,4.3
				c-1.4,1.3-3.5,1.9-5.9,1.9c-0.5,0-1,0-1.4-0.1v6.5h-4.1V21.4z M45.8,29.7c0.4,0.1,0.8,0.1,1.4,0.1c2.2,0,3.5-1.1,3.5-2.9
				c0-1.7-1.1-2.7-3.2-2.7c-0.8,0-1.4,0.1-1.7,0.1V29.7z"/>
		</g>
		<g>
			<path class="st1" d="M7.8,21.4c1.1-0.2,3.2-0.4,5.3-0.4c2.5,0,4.1,0.2,5.4,1c1.3,0.7,2.2,1.9,2.2,3.6c0,1.6-0.9,3.1-3,3.9v0.1
				c2.1,0.5,3.6,2.1,3.6,4.5c0,1.7-0.8,3-1.9,3.9c-1.3,1.1-3.5,1.6-7.2,1.6c-2,0-3.5-0.1-4.5-0.3V21.4z M11.9,28.4h1.4
				c2.2,0,3.3-0.9,3.3-2.2c0-1.4-1.1-2.1-2.9-2.1c-0.9,0-1.4,0.1-1.8,0.1V28.4z M11.9,36.4c0.4,0.1,0.9,0.1,1.6,0.1
				c1.9,0,3.5-0.7,3.5-2.6c0-1.8-1.6-2.6-3.7-2.6h-1.4V36.4z"/>
			<path class="st1" d="M28.3,34.7L27,39.4h-4.3l5.6-18.2h5.4l5.7,18.2h-4.4l-1.4-4.7H28.3z M32.9,31.6l-1.1-3.9
				c-0.3-1.1-0.6-2.5-0.9-3.5h-0.1c-0.2,1.1-0.5,2.5-0.8,3.5l-1.1,3.9H32.9z"/>
			<path class="st1" d="M41.8,21.4c1.3-0.2,3.1-0.4,5.6-0.4c2.5,0,4.4,0.5,5.6,1.5c1.2,0.9,1.9,2.4,1.9,4.2c0,1.8-0.6,3.3-1.6,4.3
				c-1.4,1.3-3.5,1.9-5.9,1.9c-0.5,0-1,0-1.4-0.1v6.5h-4.1V21.4z M45.8,29.7c0.4,0.1,0.8,0.1,1.4,0.1c2.2,0,3.5-1.1,3.5-2.9
				c0-1.7-1.1-2.7-3.2-2.7c-0.8,0-1.4,0.1-1.7,0.1V29.7z"/>
		</g>
	</g>
	<g>
		<path class="st2" d="M67.6,21.4c1.1-0.2,3.2-0.4,5.3-0.4c2.5,0,4.1,0.2,5.4,1c1.3,0.7,2.2,1.9,2.2,3.6c0,1.6-0.9,3.1-3,3.9v0.1
			c2.1,0.5,3.6,2.1,3.6,4.5c0,1.7-0.8,3-1.9,3.9c-1.3,1.1-3.5,1.6-7.2,1.6c-2,0-3.5-0.1-4.5-0.3V21.4z M71.6,28.4H73
			c2.2,0,3.3-0.9,3.3-2.2c0-1.4-1.1-2.1-2.9-2.1c-0.9,0-1.4,0.1-1.8,0.1V28.4z M71.6,36.4c0.4,0.1,0.9,0.1,1.6,0.1
			c1.9,0,3.5-0.7,3.5-2.6c0-1.8-1.6-2.6-3.7-2.6h-1.4V36.4z"/>
		<path class="st2" d="M88,34.7l-1.3,4.7h-4.3L88,21.1h5.4l5.7,18.2h-4.4l-1.4-4.7H88z M92.6,31.6l-1.1-3.9
			c-0.3-1.1-0.6-2.5-0.9-3.5h-0.1c-0.2,1.1-0.5,2.5-0.8,3.5l-1.1,3.9H92.6z"/>
		<path class="st2" d="M103.2,24.4c-1.4,0-2.3-1-2.3-2.2c0-1.2,0.9-2.2,2.3-2.2c1.4,0,2.3,0.9,2.3,2.2
			C105.6,23.4,104.7,24.4,103.2,24.4L103.2,24.4z M101.2,39.4V26.1h4.1v13.2H101.2z"/>
		<path class="st2" d="M108.6,30.5c0-1.9,0-3.2-0.1-4.4h3.5l0.2,2.5h0.1c0.7-1.9,2.3-2.8,3.6-2.8c0.4,0,0.6,0,0.9,0.1v3.9
			c-0.4-0.1-0.7-0.1-1.1-0.1c-1.5,0-2.5,0.8-2.8,2.1c-0.1,0.3-0.1,0.6-0.1,0.9v6.7h-4.1L108.6,30.5z"/>
		<path class="st2" d="M121.9,34c0.1,1.7,1.8,2.5,3.7,2.5c1.4,0,2.5-0.2,3.6-0.6l0.5,2.8c-1.4,0.6-3,0.8-4.8,0.8
			c-4.5,0-7.1-2.6-7.1-6.8c0-3.4,2.1-7.1,6.7-7.1c4.3,0,5.9,3.3,5.9,6.6c0,0.7-0.1,1.3-0.1,1.6L121.9,34z M126.7,31.2
			c0-1-0.4-2.7-2.3-2.7c-1.8,0-2.5,1.6-2.6,2.7H126.7z"/>
		<path class="st2" d="M132.9,35.8c0.8,0.5,2.3,1,3.5,1c1.2,0,1.8-0.4,1.8-1.1c0-0.7-0.4-1-1.9-1.5c-2.8-0.9-3.8-2.4-3.8-3.9
			c0-2.5,2.1-4.4,5.4-4.4c1.5,0,2.9,0.4,3.7,0.8l-0.7,2.8c-0.6-0.3-1.8-0.7-2.9-0.7c-1,0-1.6,0.4-1.6,1.1c0,0.6,0.5,1,2.1,1.5
			c2.5,0.8,3.5,2.1,3.6,4.1c0,2.5-1.9,4.3-5.7,4.3c-1.7,0-3.3-0.4-4.3-0.9L132.9,35.8z"/>
		<path class="st0" d="M144.8,21.4c1.3-0.2,3.1-0.4,5.6-0.4c2.5,0,4.4,0.5,5.6,1.5c1.2,0.9,1.9,2.4,1.9,4.2c0,1.8-0.6,3.3-1.6,4.3
			c-1.4,1.3-3.5,1.9-5.9,1.9c-0.5,0-1,0-1.4-0.1v6.5h-4.1V21.4z M148.9,29.7c0.4,0.1,0.8,0.1,1.4,0.1c2.2,0,3.5-1.1,3.5-2.9
			c0-1.7-1.1-2.7-3.2-2.7c-0.8,0-1.4,0.1-1.7,0.1V29.7z"/>
		<path class="st0" d="M160.2,30.5c0-1.9,0-3.2-0.1-4.4h3.5l0.2,2.5h0.1c0.7-1.9,2.3-2.8,3.6-2.8c0.4,0,0.6,0,0.9,0.1v3.9
			c-0.4-0.1-0.7-0.1-1.1-0.1c-1.5,0-2.5,0.8-2.8,2.1c-0.1,0.3-0.1,0.6-0.1,0.9v6.7h-4.1L160.2,30.5z"/>
		<path class="st0" d="M172.4,24.4c-1.4,0-2.3-1-2.3-2.2c0-1.2,0.9-2.2,2.3-2.2c1.4,0,2.3,0.9,2.3,2.2
			C174.8,23.4,173.9,24.4,172.4,24.4L172.4,24.4z M170.4,39.4V26.1h4.1v13.2H170.4z"/>
		<path class="st0" d="M177.8,30.4c0-1.6-0.1-3-0.1-4.2h3.6l0.2,1.8h0.1c0.5-0.9,1.9-2.1,4.1-2.1c2.7,0,4.7,1.8,4.7,5.7v7.8h-4.1V32
			c0-1.7-0.6-2.9-2.1-2.9c-1.1,0-1.8,0.8-2.1,1.5c-0.1,0.3-0.1,0.6-0.1,1v7.6h-4.1V30.4z"/>
		<path class="st0" d="M198.1,22.6v3.6h2.9v3h-2.9V34c0,1.6,0.4,2.3,1.6,2.3c0.6,0,0.8,0,1.2-0.1l0,3.1c-0.5,0.2-1.5,0.4-2.6,0.4
			c-1.3,0-2.4-0.5-3.1-1.1c-0.8-0.8-1.1-2.1-1.1-3.9v-5.4h-1.8v-3h1.8v-2.5L198.1,22.6z"/>
	</g>
</g>
</svg>
